<svg xmlns="http://www.w3.org/2000/svg" viewBox="0 0 512 512"><path d="M256 512C114.844 512 0 397.156 0 256S114.844 0 256 0s256 114.844 256 256-114.844 256-256 256z" fill="#ff6464"/><path d="M375.467 426.667c-141.156 0-256-114.844-256-256 0-59.087 20.318-113.41 54.071-156.783C72.768 48.311 0 143.72 0 256c0 141.156 114.844 256 256 256 82.069 0 155.049-38.974 201.929-99.217-25.917 8.855-53.587 13.884-82.462 13.884z" fill="#d2555a"/><path d="M141.241 388.414a17.593 17.593 0 0 1-12.483-5.173c-6.897-6.892-6.897-18.073 0-24.966l229.517-229.517c6.888-6.897 18.078-6.897 24.966 0 6.897 6.892 6.897 18.073 0 24.966L153.724 383.241a17.592 17.592 0 0 1-12.483 5.173zm35.311-150.069c-34.073 0-61.793-27.72-61.793-61.793s27.72-61.793 61.793-61.793 61.793 27.72 61.793 61.793-27.72 61.793-61.793 61.793zm0-88.276c-14.603 0-26.483 11.88-26.483 26.483s11.88 26.483 26.483 26.483 26.483-11.88 26.483-26.483-11.88-26.483-26.483-26.483zm158.896 247.172c-34.073 0-61.793-27.72-61.793-61.793s27.72-61.793 61.793-61.793 61.793 27.72 61.793 61.793-27.719 61.793-61.793 61.793zm0-88.275c-14.603 0-26.483 11.88-26.483 26.483s11.88 26.483 26.483 26.483 26.483-11.88 26.483-26.483c0-14.604-11.88-26.483-26.483-26.483z" fill="#fff"/></svg>