<svg xmlns="http://www.w3.org/2000/svg" viewBox="0 0 512 512"><path d="M306.087 0C286.133 0 268.247 8.84 256 22.755 243.753 8.84 225.867 0 205.913 0c-36.826 0-66.783 29.956-66.783 66.783s29.956 66.783 66.783 66.783h100.174c36.826 0 66.783-29.956 66.783-66.783S342.913 0 306.087 0zM172.522 66.783c0-18.413 14.978-33.391 33.391-33.391s33.391 14.978 33.391 33.391v33.391h-33.391c-18.413 0-33.391-14.978-33.391-33.391zm133.565 33.391h-33.391V66.783c0-18.413 14.978-33.391 33.391-33.391s33.391 14.978 33.391 33.391-14.978 33.391-33.391 33.391z" fill="#ffda44"/><path d="M473.043 495.304c0 9.22-7.475 16.696-16.696 16.696H55.652c-9.22 0-16.696-7.475-16.696-16.696V217.043c0-9.22 7.475-16.696 16.696-16.696h400.696c9.22 0 16.696 7.475 16.696 16.696v278.261z" fill="#ff5023"/><path d="M506.435 217.043c0 9.22-7.475 16.696-16.696 16.696H22.261c-9.22 0-16.696-7.475-16.696-16.696V116.87c0-9.22 7.475-16.696 16.696-16.696h467.478c9.22 0 16.696 7.475 16.696 16.696v100.173z" fill="#ff7956"/><path d="M456.348 200.348H256V512h200.348c9.223 0 16.696-7.473 16.696-16.696V217.043c-.001-9.222-7.474-16.695-16.696-16.695z" fill="#cd2a00"/><path d="M306.087 0c-19.954 0-37.811 8.84-50.058 22.755-.018-.02-.029-.038-.029-.057v110.867h50.087c36.826 0 66.783-29.956 66.783-66.783S342.913 0 306.087 0zm0 100.174h-33.391V66.783c0-18.413 14.978-33.391 33.391-33.391s33.391 14.978 33.391 33.391-14.978 33.391-33.391 33.391z" fill="#ffa733"/><path d="M489.739 100.174H256v133.565h233.739c9.223 0 16.696-7.473 16.696-16.696V116.87c0-9.223-7.473-16.696-16.696-16.696z" fill="#ff5023"/><path d="M306.087 512H205.913V100.174h100.174V512z" fill="#ffda44"/><path fill="#ffa733" d="M256 100.174h50.087V512H256z"/></svg>