<svg xmlns="http://www.w3.org/2000/svg" viewBox="0 0 512 512"><path d="M372.285 286.593h-55.264c-15.606 0-28.259-12.652-28.259-28.26V19.948C288.762 8.977 279.785 0 268.814 0H46.963C35.99 0 27.014 8.977 27.014 19.948v379.347C27.014 461.54 77.473 512 139.717 512h232.568c62.244 0 112.703-50.46 112.703-112.704 0-62.243-50.459-112.703-112.703-112.703z" fill="#ff6d68"/><path d="M380.235 399.296c0 39.77 18.551 75.201 47.471 98.124 34.191-19.354 57.281-56.031 57.281-98.124 0-42.092-23.09-78.769-57.281-98.122-28.919 22.923-47.471 58.354-47.471 98.122zM27.014 362.743v36.553C27.014 461.54 77.473 512 139.717 512h36.554c0-82.433-66.825-149.257-149.257-149.257z" fill="#ab4a47"/><path d="M268.814 0H46.963C35.99 0 27.014 8.977 27.014 19.948v66.494h261.748V19.948C288.762 8.977 279.785 0 268.814 0z" fill="#00b288"/><path d="M149.553 0h16.67v86.439h-16.67zm-73.17 0h16.67v86.439h-16.67zm146.339 0h16.67v86.439h-16.67z" opacity=".15"/><path d="M67.3 130.041c14.057 0 27.58 10.013 38.077 28.194 13.599 23.556 32.247 36.528 52.511 36.529h.001c20.262 0 38.913-12.974 52.512-36.529 10.497-18.181 24.018-28.194 38.075-28.194 14.056 0 27.579 10.013 38.076 28.193a110.223 110.223 0 0 0 2.209 3.648v-28.885c-11.699-12.776-25.566-19.628-40.287-19.628-20.263 0-38.912 12.973-52.511 36.529-10.498 18.181-24.02 28.194-38.077 28.194-14.056 0-27.579-10.013-38.075-28.194-13.6-23.557-32.251-36.529-52.514-36.529-14.72 0-28.586 6.852-40.286 19.628v28.886a108.652 108.652 0 0 0 2.21-3.65c10.5-18.179 24.023-28.192 38.079-28.192z" fill="#fff"/><path d="M288.762 258.333v-28.826c-11.699-12.776-25.566-19.628-40.287-19.628-20.263 0-38.912 12.973-52.511 36.529-10.498 18.181-24.02 28.194-38.077 28.194-14.056 0-27.579-10.013-38.075-28.194-13.6-23.557-32.251-36.529-52.514-36.529-14.72 0-28.586 6.852-40.286 19.629v28.885a108.652 108.652 0 0 0 2.21-3.65c10.496-18.181 24.019-28.194 38.075-28.194 14.057 0 27.58 10.013 38.077 28.194 13.599 23.556 32.247 36.528 52.511 36.529h.001c20.262 0 38.913-12.974 52.512-36.529 10.496-18.181 24.018-28.194 38.075-28.194 14.056 0 27.579 10.013 38.076 28.193.719 1.247 1.46 2.459 2.21 3.652.004-.021.003-.041.003-.061z" fill="#f9be00"/><path d="M205.605 486.133a8.301 8.301 0 0 1-5.893-2.442 8.334 8.334 0 0 1 0-11.787l21.642-21.642a8.334 8.334 0 1 1 11.787 11.787l-21.642 21.642a8.31 8.31 0 0 1-5.894 2.442zm-36.853-114.165a8.305 8.305 0 0 1-5.893-2.442 8.334 8.334 0 0 1 0-11.787l21.642-21.642a8.336 8.336 0 0 1 11.787 11.788l-21.642 21.642a8.31 8.31 0 0 1-5.894 2.441zm78.919-50.197a8.301 8.301 0 0 1-5.893-2.442l-21.642-21.642a8.334 8.334 0 1 1 11.787-11.787l21.642 21.642a8.336 8.336 0 0 1-5.894 14.229zm-3.213 101.452a8.305 8.305 0 0 1-5.893-2.442l-21.643-21.642c-3.255-3.255-3.255-8.532 0-11.787s8.533-3.256 11.787 0l21.643 21.642a8.334 8.334 0 0 1-5.894 14.229zm108.594-73.148a8.303 8.303 0 0 1-5.894-2.442l-21.641-21.642a8.335 8.335 0 0 1 .001-11.788 8.337 8.337 0 0 1 11.788 0l21.641 21.642a8.335 8.335 0 0 1-.001 11.788 8.312 8.312 0 0 1-5.894 2.442zm-7.702 136.058a8.303 8.303 0 0 1-5.894-2.442l-21.642-21.642a8.336 8.336 0 0 1 11.788-11.787l21.642 21.642a8.334 8.334 0 0 1 0 11.787 8.311 8.311 0 0 1-5.894 2.442zm-51.865-85.44a8.308 8.308 0 0 1-5.894-2.442 8.334 8.334 0 0 1 .001-11.787l21.643-21.642a8.334 8.334 0 1 1 11.786 11.787l-21.643 21.642a8.308 8.308 0 0 1-5.893 2.442zm-173.713-39.504a8.305 8.305 0 0 1-5.893-2.442l-21.642-21.642c-3.255-3.255-3.255-8.532 0-11.787s8.533-3.255 11.787 0l21.642 21.642a8.334 8.334 0 0 1 0 11.787 8.308 8.308 0 0 1-5.894 2.442zm-62.631-56.814a8.301 8.301 0 0 1-5.893-2.442 8.334 8.334 0 0 1 0-11.787l21.642-21.643a8.334 8.334 0 0 1 11.787 0 8.334 8.334 0 0 1 0 11.787l-21.641 21.644a8.309 8.309 0 0 1-5.895 2.441zm206.317-114.884a8.307 8.307 0 0 1-5.893-2.44l-21.644-21.642a8.336 8.336 0 0 1 11.787-11.788l21.643 21.642a8.335 8.335 0 0 1-5.893 14.228zm-110.852 60.826a8.301 8.301 0 0 1-5.893-2.442 8.336 8.336 0 0 1 0-11.788l21.643-21.643a8.334 8.334 0 1 1 11.787 11.787L158.5 247.874a8.309 8.309 0 0 1-5.894 2.443zm-70.713-54.351A8.301 8.301 0 0 1 76 193.524l-21.643-21.642a8.334 8.334 0 1 1 11.787-11.787l21.643 21.643a8.336 8.336 0 0 1-5.894 14.228zm83.718-48.689a8.301 8.301 0 0 1-5.893-2.442l-21.643-21.642c-3.255-3.255-3.255-8.532 0-11.787s8.533-3.255 11.787 0l21.643 21.642a8.334 8.334 0 0 1 0 11.787 8.31 8.31 0 0 1-5.894 2.442z" opacity=".2"/><path d="M336.875 286.593h-55.263c-15.606 0-28.259-12.652-28.259-28.26V19.948C253.353 8.977 244.376 0 233.404 0H46.963C35.99 0 27.014 8.977 27.014 19.948v379.347C27.014 461.54 77.473 512 139.717 512h197.159c62.244 0 112.703-50.46 112.703-112.704 0-62.243-50.46-112.703-112.704-112.703z" opacity=".15"/></svg>