<svg xmlns="http://www.w3.org/2000/svg" viewBox="0 0 59.017 59.017"><path d="M52.789 34.385c-.091.007-.179.027-.272.027a3.5 3.5 0 0 1-3.5-3.5c0-1.473.912-2.728 2.201-3.244-1.901-5.09-5.527-8.896-10.073-11.291-.004-.002-.009-.002-.013-.003a11.555 11.555 0 0 1-2.825 4.069 14.76 14.76 0 0 0-14.829.652 11.528 11.528 0 0 1-3.878-5.492c-.024-.059-.055-.112-.074-.175-1.439.451-2.703.895-3.517 1.235-4.193-1.703-7.12-2.439-9.684-2.154-.365.04-.434.527-.103.686 2.331 1.122 2.739 4.092 3.787 6.314-3.044 2.932-3.342 5.062-3.879 8.903H4c-2.87 0-4 2.327-4 5.197v3.607c0 2.87 1.13 5.196 4 5.196h1.314c2.982 8.674 13.452 13.316 24.436 13.316 13.393 0 23.267-7.718 23.267-19.316a35.49 35.49 0 0 0-.228-4.027" fill="#f4adc9"/><path d="M16.009 28.912a2.5 2.5 0 1 1-5 0 2.5 2.5 0 0 1 5 0" fill="#fff"/><path d="M53.017 38.412a1 1 0 0 1 0-2c2.206 0 4-1.794 4-4a1 1 0 0 1 2 0c0 3.309-2.691 6-6 6" fill="#e685a5"/><path d="M58.017 33.412a1 1 0 0 1-1-1c0-2.206-1.794-4-4-4a1 1 0 0 1 0-2c3.309 0 6 2.691 6 6a1 1 0 0 1-1 1" fill="#e685a5"/><path d="M52.517 35.412a4.505 4.505 0 0 1-4.5-4.5c0-2.481 2.019-4.5 4.5-4.5s4.5 2.019 4.5 4.5-2.019 4.5-4.5 4.5m0-7a2.503 2.503 0 0 0-2.5 2.5c0 1.378 1.122 2.5 2.5 2.5s2.5-1.122 2.5-2.5-1.122-2.5-2.5-2.5" fill="#e685a5"/><path d="M55.961 31.37a1 1 0 0 1-.908-1.418 5 5 0 0 0 .022-4.133 1 1 0 1 1 1.825-.817 7.003 7.003 0 0 1-.03 5.786 1 1 0 0 1-.909.582m-7.226 18.785c-2.414 2.79-5.738 4.91-9.702 6.187l.296.985c.21.701.856 1.182 1.588 1.182h6.017c2.319 0 3.94-2.293 3.169-4.479l-1.368-3.875zm-39.771.111L7.351 54.3c-.807 2.016.678 4.209 2.849 4.209h6.741c.438 0 .833-.267.996-.675l.725-1.814c-3.829-1.252-7.203-3.177-9.698-5.754m19.435 4.358c-3.732 0-7.126-.723-10.513-2.222a1 1 0 1 1 .81-1.829c3.915 1.734 7.684 2.332 12.227 1.939a.993.993 0 0 1 1.082.91.999.999 0 0 1-.91 1.082c-.92.08-1.818.12-2.696.12m13.48-30.546a.997.997 0 0 1-.707-.293c-5.364-5.363-14.092-5.363-19.456 0a.999.999 0 1 1-1.414-1.414c6.143-6.144 16.14-6.144 22.284 0a.999.999 0 0 1-.707 1.707" fill="#e685a5"/><path d="M22.692 20.413c4.896-3.273 11.228-3.503 16.332-.703a11.421 11.421 0 0 0 2.985-7.702c0-6.352-5.149-11.5-11.5-11.5s-11.5 5.148-11.5 11.5c0 3.326 1.425 6.307 3.683 8.405" fill="#ffd949"/><path d="M26.79 18.469a15.864 15.864 0 0 1 8.088-.315 7.485 7.485 0 0 0 3.208-6.145 7.5 7.5 0 0 0-15 0 7.489 7.489 0 0 0 3.704 6.46" fill="#f4bf1a"/></svg>