<svg xmlns="http://www.w3.org/2000/svg" viewBox="0 0 114.757 114.757"><g fill-rule="evenodd" clip-rule="evenodd"><path d="M67.048 74.312c-.199.312-19.746.623-19.962.932-6.14 8.758-19.403 12.595-29.95 14.953-10.498 2.347-10.904 15.68-10.92 24.56h102.325c-.016-8.88-.21-22.165-10.919-24.56-10.709-2.394-24.75-6.728-30.574-15.885z" fill="#f0b98b"/><path d="M13.03 91.967c-6.504 4.514-6.8 15.255-6.813 22.79h102.325c-.014-7.556-.158-18.3-6.798-22.812-15.582 21.245-73.111 21.224-88.714.022z" fill="#ff386a"/><path d="M29.301 14.966C32.94 7.256 40.045 2.431 49.953 4.255c7.927-9.703 28.963-.929 33.262 7.585 16.582 32.839-12.71 51.279-26.552 51.279-12.421 0-40.094-21.171-27.362-48.153z" fill="#cc7c54"/><path d="M67.63 55.608v25.117c-5.639 7.411-14.865 7.155-20.503 0V55.608c0-13.562 20.503-13.562 20.503 0z" fill="#f0b98b"/><path d="M67.63 55.608v16.816c-3.879 3.035-7.618 4.735-10.251 4.735s-6.373-1.7-10.252-4.735V55.608c0-13.562 20.503-13.562 20.503 0z" fill="#cc9568"/><path d="M86.515 38.989c15.98 3.871 14.673 26.86 5.306 35.129-14.675 12.955 1.729 24.196-3.362 23.148-12.098-2.488-20.4-20.19-7.998-33.93 12.402-13.738-3.125-26.571 6.054-24.347z" fill="#cc7c54"/><ellipse transform="rotate(-124.904 85.803 40.101)" cx="85.804" cy="40.1" rx="2.854" ry="7.222" fill="#86bceb"/><path d="M28.658 38.989c-15.981 3.871-14.674 26.86-5.306 35.129 14.674 12.955-1.729 24.196 3.362 23.148 12.098-2.488 20.4-20.19 7.998-33.93-12.403-13.738 3.124-26.571-6.054-24.347z" fill="#cc7c54"/><ellipse transform="rotate(-55.096 29.37 40.101)" cx="29.368" cy="40.1" rx="2.854" ry="7.221" fill="#86bceb"/><path d="M57.379 72.982c-6.675 0-20.775-10.494-25.135-25.524-4.401-15.176 3.888-36.944 25.135-36.944s29.536 21.767 25.135 36.944c-4.36 15.03-18.46 25.524-25.135 25.524z" fill="#f0b98b"/><path d="M46.739 55.071c4.501-3.293 9.199-1.344 10.77-1.344 1.571 0 6.01-1.948 10.512 1.344-2.241 9.054-17.893 9.283-21.282 0z" fill="#ff386a"/><path d="M46.873 55.024c4.179-1.474 7.872 1.412 10.501 1.412 2.629 0 6.332-3.876 10.511-1.265-4.896 4.991-16.082 4.721-21.012-.147z" fill="#a31f40"/><path d="M46.738 55.024c4.502-1.856 7.814-.51 10.443-.51s6.337-1.346 10.839.51c-4.897 2.795-16.352 2.702-21.282 0z" fill="#fff"/><path d="M46.76 55.041c4.481-3.251 8.328-.996 10.952-.996 2.625 0 5.784-2.267 10.286 1.026-.016.046-.035.091-.052.136-5.739-.102-15.131-.16-21.186-.166z" fill="#ff386a"/><ellipse transform="rotate(-113.24 29.65 45.021)" cx="29.65" cy="45.024" rx="7.317" ry="4.232" fill="#f0b98b"/><ellipse transform="rotate(-66.758 83.127 45.026)" cx="83.123" cy="45.024" rx="7.316" ry="4.232" fill="#f0b98b"/><path d="M82.134 43.33C94.658 8.06 70.492 5.817 56.285 5.817c-16.001 0-34.687 8.161-24.351 37.916 15.254-.751 28.662-9.25 42.141-27.116 2.295 9.075 3.843 20.871 8.059 26.713z" fill="#cc7c54"/><path d="M24.525 114.757a55.49 55.49 0 0 1 .732-7.387c-.907 2.879-1.549 5.289-2.002 7.387h1.27zm65.708 0a55.3 55.3 0 0 0-.731-7.387c.907 2.879 1.549 5.289 2.002 7.387h-1.271z" fill="#c21842"/><path d="M105.111 95.502a4.883 4.883 0 0 1-3.367 1.341 4.879 4.879 0 0 1-2.403-.629 4.896 4.896 0 0 1-8.242 5.187 4.897 4.897 0 0 1-9.084 3.579 4.897 4.897 0 0 1-9.648 1.67c12.633-2.126 23.746-7.025 29.379-14.704 1.384.942 2.486 2.156 3.365 3.556zm-71.54 11.114v-1.488c.025-.164.058-.324.099-.481 8.717 2.575 18.804 3.61 28.62 3.098l.002.129a4.897 4.897 0 0 1-9.635 1.248 4.899 4.899 0 0 1-9.464-2.179 4.9 4.9 0 0 1-4.781 3.829 4.903 4.903 0 0 1-4.841-4.156zm0-1.825c.02-.052.039-.105.057-.157l-.057-.017v.174zm38.563 1.896a88.983 88.983 0 0 1-9.735 1.052 4.898 4.898 0 1 0 9.735-1.052zm-38.563-2.07v.174a4.899 4.899 0 0 1-9.313-.449v-2.555a4.73 4.73 0 0 1 .246-.698c2.775 1.39 5.825 2.565 9.067 3.528zm0 .511a5.07 5.07 0 0 0 0 1.488v-1.488zm-9.313-3.806c.059-.088.115-.179.169-.271l-.169-.085v.356zm0-.356v.356a4.897 4.897 0 1 1-7.939-5.728 4.874 4.874 0 0 1-3.289 1.269 4.88 4.88 0 0 1-3.334-1.311c.874-1.413 1.966-2.638 3.334-3.587 2.661 3.618 6.543 6.619 11.228 9.001zm0 .821a4.895 4.895 0 0 0 0 2.555v-2.555z" fill="#fff"/></g></svg>