<svg xmlns="http://www.w3.org/2000/svg" viewBox="0 0 512 512" width="512" height="512"><path d="M512 254.847c0-12.13-3.501-23.886-10.126-33.998-5.646-8.618-7.764-19.153-5.958-29.664a61.913 61.913 0 0 0-3.846-34.217c-4.642-11.206-12.374-20.727-22.361-27.533-8.401-5.725-14.433-14.838-16.983-25.66a61.949 61.949 0 0 0-16.524-29.609c-8.439-8.439-19.038-14.236-30.654-16.764-10.521-2.291-19.66-8.284-25.733-16.875-6.753-9.557-16.061-16.985-26.916-21.481-11.209-4.642-23.407-5.906-35.285-3.655-10.122 1.917-20.666-.158-29.686-5.847C278.032 3.299 266.593 0 254.845 0c-12.13 0-23.887 3.501-33.998 10.125-8.618 5.647-19.154 7.764-29.663 5.958a61.938 61.938 0 0 0-34.218 3.845c-11.206 4.643-20.726 12.375-27.532 22.362-5.725 8.401-14.839 14.433-25.66 16.984a61.953 61.953 0 0 0-29.609 16.523C65.727 84.233 59.93 94.833 57.4 106.451c-2.29 10.519-8.283 19.658-16.876 25.732A61.92 61.92 0 0 0 19.043 159.1c-4.642 11.208-5.905 23.408-3.655 35.284 1.918 10.124-.157 20.667-5.846 29.686C3.299 233.965 0 245.405 0 257.154c0 12.13 3.501 23.886 10.126 33.998 5.646 8.618 7.764 19.153 5.958 29.664a61.913 61.913 0 0 0 3.846 34.217c4.642 11.206 12.374 20.727 22.361 27.533 8.401 5.725 14.433 14.838 16.983 25.66a61.949 61.949 0 0 0 16.524 29.609c8.439 8.439 19.038 14.236 30.654 16.764 10.522 2.291 19.66 8.284 25.733 16.875 6.753 9.557 16.061 16.985 26.916 21.481 11.208 4.643 23.408 5.906 35.286 3.655 10.121-1.919 20.666.158 29.685 5.847 9.897 6.243 21.337 9.542 33.084 9.542 12.13 0 23.887-3.501 33.998-10.125 8.618-5.647 19.152-7.765 29.663-5.958a61.927 61.927 0 0 0 34.218-3.845c11.206-4.643 20.726-12.375 27.532-22.362 5.725-8.401 14.839-14.433 25.66-16.984a61.953 61.953 0 0 0 29.609-16.523c8.438-8.437 14.235-19.037 16.764-30.655 2.29-10.519 8.283-19.658 16.876-25.732a61.92 61.92 0 0 0 21.481-26.917c4.642-11.208 5.905-23.408 3.655-35.284-1.918-10.124.157-20.667 5.846-29.686 6.243-9.893 9.542-21.333 9.542-33.081zm-26.793 22.201c-8.451 13.4-11.518 29.155-8.636 44.367 1.51 7.964.659 16.152-2.46 23.68a41.55 41.55 0 0 1-14.408 18.065c-12.765 9.024-21.655 22.537-25.033 38.05a41.536 41.536 0 0 1-11.256 20.57 41.569 41.569 0 0 1-19.865 11.093c-15.797 3.723-29.234 12.727-37.838 25.351-4.563 6.697-10.954 11.885-18.481 15.003a41.547 41.547 0 0 1-22.96 2.586c-15.615-2.68-31.345.515-44.295 9-6.779 4.442-14.671 6.79-22.819 6.79a41.554 41.554 0 0 1-22.203-6.397c-10.116-6.38-21.572-9.691-33.126-9.691-3.75 0-7.513.349-11.241 1.056-7.969 1.508-16.154.658-23.683-2.46a41.542 41.542 0 0 1-18.064-14.408c-9.022-12.764-22.535-21.655-38.051-25.033a41.543 41.543 0 0 1-20.569-11.257 41.568 41.568 0 0 1-11.094-19.864c-3.722-15.797-12.724-29.234-25.349-37.838-6.697-4.564-11.885-10.955-15.004-18.483a41.558 41.558 0 0 1-2.587-22.958c2.681-15.614-.515-31.345-8.999-44.294-4.442-6.78-6.79-14.672-6.79-22.82 0-7.89 2.212-15.567 6.396-22.202 8.451-13.4 11.518-29.155 8.636-44.367-1.509-7.964-.659-16.152 2.46-23.681a41.55 41.55 0 0 1 14.408-18.065c12.765-9.024 21.655-22.537 25.033-38.05a41.536 41.536 0 0 1 11.256-20.57 41.569 41.569 0 0 1 19.865-11.093c15.798-3.723 29.234-12.727 37.838-25.351 4.563-6.697 10.954-11.885 18.481-15.003a41.567 41.567 0 0 1 22.96-2.586c15.613 2.68 31.345-.515 44.295-9 6.779-4.442 14.671-6.79 22.819-6.79 7.89 0 15.568 2.212 22.205 6.396 13.4 8.451 29.156 11.517 44.368 8.636 7.965-1.51 16.152-.658 23.681 2.46a41.542 41.542 0 0 1 18.064 14.408c9.022 12.764 22.535 21.655 38.051 25.033a41.543 41.543 0 0 1 20.569 11.257 41.568 41.568 0 0 1 11.094 19.864c3.722 15.797 12.725 29.234 25.349 37.838 6.697 4.564 11.885 10.955 15.004 18.483a41.558 41.558 0 0 1 2.587 22.958c-2.681 15.614.515 31.345 8.999 44.294 4.442 6.78 6.79 14.672 6.79 22.82a41.546 41.546 0 0 1-6.397 22.203z" fill="#B7D433"/><path d="M225.462 226.012v-47.383c0-27.167-18.006-37.275-40.75-37.275-23.06 0-40.75 10.108-40.75 37.275v47.383c0 27.167 17.69 37.276 40.75 37.275 22.744 0 40.75-10.108 40.75-37.275zm-18.953 0c0 13.899-8.214 20.533-21.797 20.533s-21.797-6.634-21.797-20.533v-47.383c0-13.899 8.213-20.533 21.797-20.533 13.582 0 21.797 6.635 21.797 20.533v47.383zm115.617 25.273c-23.06 0-40.75 10.108-40.75 37.275v47.383c0 27.167 17.69 37.275 40.75 37.275 22.744 0 40.75-10.108 40.75-37.275V288.56c-.001-27.167-18.006-37.275-40.75-37.275zm21.796 84.657c0 13.899-8.214 20.533-21.797 20.533s-21.797-6.634-21.797-20.533v-47.383c0-13.899 8.213-20.533 21.797-20.533 13.582 0 21.797 6.634 21.797 20.533v47.383zm-20.534-196.484c0-6.001-5.685-10.425-10.739-10.424-3.159 0-6.317 1.58-7.897 4.739l-118.46 234.392c-.632 1.263-.949 2.842-.949 4.106 0 5.055 4.422 9.477 10.108 9.477 3.791 0 7.266-1.58 8.845-5.055L322.441 143.88c.631-1.579.947-2.843.947-4.422z" fill="#B7D433"/></svg>