<svg xmlns="http://www.w3.org/2000/svg" viewBox="0 0 59 59"><path d="M56 16.5v-13H46v-3H28v8H14v8h-3v-8a1 1 0 0 0-1-1H7.858c-.447-1.72-2-3-3.858-3-2.206 0-4 1.794-4 4s1.794 4 4 4c1.858 0 3.411-1.28 3.858-3H9v39a1 1 0 0 0 1 1h7.031c-1.225.912-2.031 2.359-2.031 4 0 2.757 2.243 5 5 5s5-2.243 5-5c0-1.641-.806-3.088-2.031-4h18.062c-1.225.912-2.031 2.359-2.031 4 0 2.757 2.243 5 5 5s5-2.243 5-5c0-1.641-.806-3.088-2.031-4H53a1 1 0 1 0 0-2H11v-5h48v-26h-3zm-52-6c-1.103 0-2-.897-2-2s.897-2 2-2c.737 0 1.375.405 1.722 1H5a1 1 0 1 0 0 2h.722c-.347.595-.985 1-1.722 1zm16 46c-1.654 0-3-1.346-3-3s1.346-3 3-3 3 1.346 3 3-1.346 3-3 3zm24 0c-1.654 0-3-1.346-3-3s1.346-3 3-3 3 1.346 3 3-1.346 3-3 3zm-33-30h6v6h-6v-6zm8 0h6v6h-6v-6zm6-8v6h-6v-6h6zm3 0h5v6h-6v-6h1zm13 0v6h-6v-6h6zm3 0h5v6h-6v-6h1zm-9 8h6v6h-6v-6zm-2 6h-6v-6h6v6zm-8 2v6h-6v-6h6zm2 0h6v6h-6v-6zm8 0h6v6h-6v-6zm8 0h6v6h-6v-6zm0-2v-6h6v6h-6zm8-6h6v6h-6v-6zm6-8v6h-6v-6h6zm-3-13v11h-8v-11h8zm-24-3h14v14H30v-14zm-14 8h12v6H16v-6zm1 8v6h-6v-6h6zm-6 16h6v6h-6v-6zm40 6v-6h6v6h-6z" fill="#B7D433"/></svg>