<svg xmlns="http://www.w3.org/2000/svg" viewBox="0 0 60 60"><g fill="#B7D433"><path d="M24 22a1 1 0 1 0 2 0c0-2.206-1.794-4-4-4s-4 1.794-4 4a1 1 0 1 0 2 0c0-1.103.897-2 2-2s2 .897 2 2zm14-4c-2.206 0-4 1.794-4 4a1 1 0 1 0 2 0c0-1.103.897-2 2-2s2 .897 2 2a1 1 0 1 0 2 0c0-2.206-1.794-4-4-4z"/><path d="M53 14V0H7v14H6v46h48V14h-1zm-2.5 0l-5.18-6.906L50.414 2H51v12h-.5zM17 14V7c0-.024-.012-.046-.014-.07a1.102 1.102 0 0 0-.036-.187c-.011-.042-.01-.085-.027-.125-.009-.022-.027-.039-.037-.061-.027-.055-.065-.102-.103-.152-.028-.036-.044-.081-.077-.113L12.414 2h35.172l-4.292 4.292c-.032.032-.049.077-.077.113-.038.05-.075.097-.102.152-.011.022-.028.038-.038.061-.017.04-.016.084-.027.125a.922.922 0 0 0-.036.187c-.002.024-.014.046-.014.07v7H17zm-5 0l3-4.001V14h-3zm33-4.001L48 14h-3V9.999zM9 2h.586l5.094 5.094L9.5 14H9V2zm43 56H8V16h44v42z"/><path d="M38 21a1 1 0 0 0-1 1v6c0 3.859-3.14 7-7 7s-7-3.141-7-7v-6a1 1 0 1 0-2 0v6c0 4.963 4.038 9 9 9s9-4.037 9-9v-6a1 1 0 0 0-1-1z"/></g></svg>