<svg xmlns="http://www.w3.org/2000/svg" viewBox="0 0 477.182 477.182" width="512" height="512"><path d="M369.15 294.553c14.392-8.49 22.445-24.698 20.517-41.289l-5.101-43.948a47.394 47.394 0 0 0 2.791-16.084c0-8.474-2.726-16.473-7.602-22.999 3.16-18.956 12.23-74.481-6.195-100.802-6.46-9.229-20.12-19.239-33.376-21.979-2.917-6.219-8.754-15.961-19.505-25.037C303.06 7.542 279.307 0 250.081 0c-59.323 0-111.698 38.684-130.328 96.26-1.615 4.992-6.345 17.51-13.677 36.2-8.063 20.552-9.117 43.551-2.97 64.76a82.557 82.557 0 0 1-4.784 58.581L96.1 260.46a46.59 46.59 0 0 0 4.376 47.496l14.033 19.295c.186.255.377.551.571.88 2.104 3.582 2.561 8.016 1.252 12.166-.662 2.099-2.257 6.542-4.276 12.168-7.515 20.936-20.094 55.977-23.686 77.202-2.721 16.072-.558 28.415 6.429 36.683 6.073 7.187 15.257 10.831 27.297 10.831h250.71a9 9 0 0 0 9-9v-76.86c0-28.147-8.597-54.969-24.543-77.471.544-7.941 4.993-15.229 11.887-19.297zm-9.146-15.503c-7.323 4.32-13.053 10.729-16.63 18.203-.305-.311-.604-.626-.913-.935-4.355-4.355-9.046-8.409-13.946-12.123a153.508 153.508 0 0 0 19.896-44.352 47.049 47.049 0 0 0 20.519-9.12l2.857 24.617a24.294 24.294 0 0 1-11.783 23.71zm-185.029-15.604a84.49 84.49 0 0 1 6.133-21.793l.378-.873c7.894-18.22 2.75-39.819-12.51-52.527l-.73-.608a14.635 14.635 0 0 1-5.284-11.277c0-4.391 1.8-8.423 5.07-11.354s7.472-4.283 11.839-3.804l28.631 3.134c22.374 2.442 43.108-12.978 47.182-35.125l2.02-10.985a10.655 10.655 0 0 1 4.616-7.013c2.33-1.548 5.095-2.076 7.775-1.485l23.558 5.466c10.129 2.35 20.314-.14 28.09-5.955l13.913 55.605v35.21c0 9.933-1.098 19.873-3.264 29.55-8.176 36.656-31.47 68.556-63.909 87.521-12.973 7.587-29.091 7.587-42.065-.001a135.905 135.905 0 0 1-49.191-49.573c-.767-1.34-1.516-2.72-2.252-4.113zm194.382-70.214c0 7.843-3.056 15.218-8.604 20.766a29.34 29.34 0 0 1-8.38 5.869 153.561 153.561 0 0 0 1.284-19.805v-26.755a20.274 20.274 0 0 1 6.004 2.512c6.072 3.767 9.696 10.277 9.696 17.413zM358.814 79.753c10.606 15.152 8.835 48.91 4.674 77.894a38.375 38.375 0 0 0-11.778-2.795l-11.272-45.048a83.517 83.517 0 0 1 .725-43.249c6.656 2.691 13.991 7.97 17.651 13.198zM108.549 454.734c-3.36-3.977-4.201-11.606-2.431-22.062 3.326-19.65 16.046-55.086 22.88-74.124 2.167-6.039 3.734-10.402 4.501-12.837 2.837-9 1.781-18.73-2.897-26.694a28.585 28.585 0 0 0-1.535-2.352l-14.033-19.296a28.627 28.627 0 0 1-2.687-29.161l2.222-4.659a100.542 100.542 0 0 0 5.825-71.339c-5.048-17.416-4.182-36.301 2.438-53.176 7.57-19.296 12.295-31.823 14.046-37.232C153.097 51.677 198.59 18 250.081 18c56.919 0 72.294 32.754 74.9 39.654l-8.305 28.871c-.297 1.031-.654 2.049-1.156 2.997-3.321 6.276-10.581 9.822-17.796 8.145l-23.411-5.434-.341-.077c-7.5-1.65-15.174-.204-21.608 4.069-6.452 4.285-10.957 11.12-12.361 18.752l-2.021 10.984c-2.375 12.917-14.458 21.918-27.521 20.487l-28.631-3.134a33.305 33.305 0 0 0-25.813 8.295 33.29 33.29 0 0 0-11.054 24.756c0 9.73 4.289 18.883 11.767 25.11l.73.608a27.048 27.048 0 0 1 7.508 31.543l-.376.867a102.347 102.347 0 0 0-3.261 72.913l4.619 13.972c.309.934.729 2.151 1.238 3.62 18.771 54.207 20.538 92.581 5.248 114.055-9.509 13.355-26.445 20.127-50.34 20.127-6.495.002-11.053-1.494-13.547-4.446zm69.906 4.448a59.213 59.213 0 0 0 8.645-9.688c11.89-16.701 14.678-38.33 13.334-59.479 6.279 4.923 14.142 10.11 23.768 14.843 25.857 12.713 54.165 17.169 81.15 17.169 20.861 0 40.926-2.666 58.456-6.236v43.392H178.455zm185.352-61.786c-51.253 11.068-96.268 8.291-130.528-8.139-22.432-10.757-33.855-24.322-37.043-28.55-3.8-17.795-9.076-33.041-12.039-41.597-.475-1.37-.868-2.504-1.155-3.375l-4.622-13.98c-.263-.794-.493-1.594-.731-2.393 11.21 13.216 24.606 24.521 39.644 33.311a59.617 59.617 0 0 0 30.119 8.148 59.63 59.63 0 0 0 30.117-8.148c15.39-8.997 28.959-20.568 40.217-34.025a117.308 117.308 0 0 1 11.946 10.4c21.973 21.972 34.074 51.191 34.074 82.275v6.073z" fill="#B7D433"/></svg>