<svg xmlns="http://www.w3.org/2000/svg" viewBox="0 0 500 100" height="100" width="500"><defs><clipPath id="a"><path d="M0 113.387h340.158V0H0v113.387z"/></clipPath></defs><g clip-path="url(#a)" transform="matrix(1.25 0 0 -1.25 29.424 129.094)" fill="#fff"><path d="M61.206 65.147c0-9.483-7.688-17.172-17.17-17.172-9.483 0-17.17 7.69-17.17 17.172 0 8.514 6.194 15.58 14.323 16.936l.028-.123c-6.336-2.464-10.139-8.435-10.139-15.41 0-8.912 6.295-14.029 12.957-14.029 6.974 0 12.626 5.651 12.626 12.626 0 5.986-4.735 10.968-10.9 10.968-7.136 0-10.509-6.48-10.509-6.48l-.11.037s3.21 9.304 12.51 9.304c5.735 0 13.554-4.676 13.554-13.829m149.465-5.006l5.6 12.777 5.558-12.777h-11.158zm16.24-11.682h4.904l-13.593 30.035h-3.817L200.811 48.46h4.741l3.386 7.727h14.612l3.361-7.727zM79.051 63.733h8.175c4.096 0 6.743 2.086 6.743 5.313 0 3.221-2.445 5.068-6.703 5.068h-8.215v-10.38zm21.05-15.245h-5.664l-8.132 11.117h-7.254V48.488h-4.455v29.837h12.915c6.654 0 11.035-3.594 11.035-9.157 0-4.387-2.795-7.61-7.395-8.775l8.95-11.905zM79.05 63.738h8.176c4.097 0 6.744 2.083 6.744 5.308 0 3.221-2.445 5.068-6.704 5.068H79.05V63.737zm21.053-15.242h-5.665l-8.133 11.116H79.05V48.496h-4.455v29.83h12.917c6.653 0 11.035-3.594 11.035-9.157 0-4.383-2.796-7.607-7.395-8.768l8.951-11.904zm-21.05 15.237h8.174c4.096 0 6.743 2.087 6.743 5.314 0 3.22-2.445 5.067-6.703 5.067h-8.215v-10.38zm21.05-15.244h-5.665l-8.132 11.117h-7.254V48.489h-4.455v29.837h12.915c6.654 0 11.035-3.594 11.035-9.157 0-4.387-2.795-7.611-7.395-8.775l8.95-11.905zM79.048 63.738h8.176c4.097 0 6.744 2.084 6.744 5.309 0 3.22-2.445 5.068-6.704 5.068H79.05V63.738zm21.053-15.241h-5.665l-8.133 11.116H79.05V48.497h-4.455v29.829h12.917c6.653 0 11.035-3.594 11.035-9.157 0-4.383-2.796-7.607-7.395-8.768l8.951-11.904zm210.286-.037h-22.114v29.83h21.911v-4.17H292.73v-8.537h15.616v-4.167H292.73V52.63h17.66v-4.17zm-53.26 7.848l-9.486 14.206V48.46h-4.373v29.83h4.21l10.096-15.118 10.096 15.119h4.211V48.46h-4.456v22.09l-9.485-14.242-.406-.6-.406.6zM192 48.46h-20.56v29.83h4.456V52.67H192v-4.21zm-51.955 0h-4.457v29.83h21.787v-4.21h-17.33v-8.988h15.492v-4.167h-15.492V48.46zm-21.54 0h-4.455v29.829h4.455v-29.83z"/></g></svg>